<?xml version="1.0" standalone="no"?>
<!DOCTYPE svg PUBLIC "-//W3C//DTD SVG 20010904//EN"
 "http://www.w3.org/TR/2001/REC-SVG-20010904/DTD/svg10.dtd">
<svg version="1.0" xmlns="http://www.w3.org/2000/svg"
 width="657.000000pt" height="647.000000pt" viewBox="0 0 657.000000 647.000000"
 preserveAspectRatio="xMidYMid meet">

<g transform="translate(0.000000,647.000000) scale(0.100000,-0.100000)"
fill="#000000" stroke="none">
<path d="M0 3235 l0 -3235 3285 0 3285 0 0 3235 0 3235 -3285 0 -3285 0 0
-3235z m3530 2151 c473 -72 857 -268 1185 -608 253 -260 419 -558 510 -911
254 -994 -274 -2018 -1240 -2404 -270 -108 -611 -160 -885 -134 -740 70 -1352
485 -1679 1139 -132 263 -211 600 -211 892 0 392 128 816 343 1135 149 222
362 433 582 578 114 75 343 187 460 225 100 33 298 80 390 92 106 13 443 11
545 -4z"/>
<path d="M2965 5121 c-205 -38 -334 -81 -506 -166 -470 -236 -815 -666 -938
-1170 -36 -150 -46 -246 -45 -435 0 -147 5 -209 22 -302 53 -285 175 -552 357
-788 50 -65 216 -229 296 -293 145 -117 365 -236 547 -296 124 -41 337 -80
481 -87 275 -15 602 56 859 185 509 256 859 720 964 1278 18 95 22 155 22 308
1 206 -9 287 -54 462 -34 130 -64 211 -130 343 -240 480 -693 831 -1220 945
-109 24 -152 28 -340 31 -178 3 -232 0 -315 -15z m-533 -1293 l3 -353 255 303
c140 167 273 326 295 352 l40 49 214 0 c203 1 213 0 199 -16 -8 -10 -74 -90
-147 -177 -107 -128 -259 -307 -438 -518 -17 -19 -26 -4 232 -373 89 -126 210
-301 269 -387 l107 -158 -213 0 -213 1 -135 196 c-201 293 -290 418 -300 421
-5 2 -45 -39 -89 -90 l-81 -92 0 -136 c0 -74 -3 -172 -7 -217 l-6 -83 -173 0
-174 0 -1 213 c0 116 -2 477 -5 801 -3 324 -3 595 0 602 4 11 42 14 186 14
l180 0 2 -352z m1636 315 c229 -76 410 -248 492 -468 85 -232 61 -536 -61
-742 -47 -79 -159 -195 -242 -250 -143 -95 -289 -133 -511 -133 l-145 0 -59
83 c-88 122 -250 353 -299 427 l-43 65 0 208 c0 223 4 246 56 314 44 58 95 77
204 78 l95 0 3 -419 2 -419 168 5 c146 5 175 8 234 30 121 45 216 142 259 263
27 76 36 223 19 296 -42 185 -176 316 -354 348 -33 6 -174 11 -313 11 -139 0
-253 4 -253 8 0 4 62 81 137 171 l137 163 190 -4 c181 -4 196 -6 284 -35z"/>
</g>
</svg>
